<svg
   xmlns="http://www.w3.org/2000/svg"
   width="260.8572"
   height="208.57143"
   id="svg2942">
  <defs
     id="defs2944">
    <clipPath
       id="clipPath379">
      <path
         d="M 609.638,69.948 L 504.992,69.948 L 504.992,42.519 L 609.638,42.519 L 609.638,69.948 z"
         id="path381" />
    </clipPath>
  </defs>
  <g
     transform="translate(654.28571,-336.64789)"
     id="layer1">
    <g
       transform="matrix(10.369952,0,0,-10.369952,-5876.9542,1069.5669)"
       id="g375"
       style="fill:#fafafa">
      <g
         clip-path="url(#clipPath379)"
         id="g377"
         style="fill:#fafafa">
        <path
           d="M 517.542,56.494 C 518.102,60.979 518.921,65.334 519.482,69.948 L 516.377,66.93 L 513.273,69.948 L 515.084,56.494 L 517.542,56.494"
           id="path383"
           style="fill:#fafafa;fill-opacity:1;fill-rule:nonzero;stroke:none" />
        <path
           d="M 509.478,54.857 L 511.031,56.366 C 509.565,57.444 508.616,58.953 508.745,60.721 C 509.004,63.049 511.376,64.774 513.402,65.421 L 510.556,68.266 C 507.969,67.404 505.296,64.86 505.037,62.014 C 504.649,58.953 506.848,56.236 509.478,54.857"
           id="path385"
           style="fill:#fafafa;fill-opacity:1;fill-rule:nonzero;stroke:none" />
      </g>
    </g>
    <path
       d="M -462.22189,361.6518 L -492.18068,391.61059 C -472.95479,397.41777 -451.05345,412.62012 -445.68182,433.64001 C -440.32055,454.6599 -452.39118,472.99397 -468.03943,485.05423 L -459.54644,494.0035 C -456.41472,497.50854 -452.246,500.59878 -452.246,500.59878 C -452.246,500.59878 -442.72638,495.24789 -438.97246,492.66577 C -415.27712,476.11533 -402.76059,449.73417 -405.88194,423.35302 C -411.25358,395.63413 -435.84073,370.5907 -462.22189,361.6518"
       id="path387"
       style="fill:#fafafa;fill-opacity:1;fill-rule:nonzero;stroke:none" />
    <path
       d="M -596.36759,503.84458 L -625.43456,532.00937 L -624.98865,532.91155 L -421.54057,532.91155 L -449.70536,503.84458 L -596.36759,503.84458"
       id="path389"
       style="fill:#fafafa;fill-opacity:1;fill-rule:nonzero;stroke:none" />
  </g>
</svg>
