<svg
   xmlns="http://www.w3.org/2000/svg"
   width="1082.8572"
   height="208.57143"
   id="svg2942">
  <defs
     id="defs2944">
    <clipPath
       id="clipPath379">
      <path
         d="M 609.638,69.948 L 504.992,69.948 L 504.992,42.519 L 609.638,42.519 L 609.638,69.948 z"
         id="path381" />
    </clipPath>
  </defs>
  <g
     transform="translate(654.28571,-336.64789)"
     id="layer1">
    <path
       d="M 235.65511,415.63777 L 210.97463,483.5091 L 201.55871,415.63777 L 134.49623,415.63777 L 92.010541,532.46565 L 138.4057,532.46565 L 162.27733,466.81348 L 171.38215,532.46565 L 239.57495,532.46565 L 282.05027,415.63777 L 235.65511,415.63777"
       id="path365"
       style="fill:#fafafa;fill-opacity:1;fill-rule:nonzero;stroke:none" />
    <path
       d="M 327.87509,501.71874 L 332.35491,489.41998 L 388.80893,489.41998 L 399.98773,458.67307 L 343.53372,458.67307 L 348.00317,446.38468 L 404.45718,446.38468 L 415.63599,415.63777 L 304.40789,415.63777 L 261.93257,532.46565 L 373.16067,532.46565 L 384.33948,501.71874 L 327.87509,501.71874"
       id="path367"
       style="fill:#fafafa;fill-opacity:1;fill-rule:nonzero;stroke:none" />
    <path
       d="M -203.66789,415.63777 L -266.82089,415.63777 L -309.70064,464.83282 L -309.77323,464.83282 L -291.9784,415.63777 L -348.43241,415.63777 L -390.90773,533.01525 L -334.45372,533.01525 L -315.91224,481.76695 L -297.00782,533.01525 L -233.84445,533.01525 L -257.81978,468.00603 L -203.66789,415.63777"
       id="path369"
       style="fill:#fafafa;fill-opacity:1;fill-rule:nonzero;stroke:none" />
    <path
       d="M -122.24303,450.66747 C -123.7363,460.91298 -140.31785,463.89953 -150.56337,463.52621 L -143.11774,442.46484 C -143.11774,442.46484 -120.76013,440.42196 -122.24303,450.66747 z M -99.69875,415.63777 L -190.24917,415.63777 L -232.72449,533.01525 L -176.28085,533.01525 L -160.99554,490.77844 C -141.41707,490.77844 -140.87783,493.88943 -145.34728,515.68706 C -146.76796,522.63493 -146.66426,528.59765 -146.07318,533.13969 L -89.453242,533.13969 C -90.002849,519.3684 -85.62673,505.25489 -84.423816,489.7933 C -83.241641,474.63243 -101.00537,473.02508 -101.00537,473.02508 C -101.00537,473.02508 -68.215581,467.62234 -62.812836,437.62207 C -59.131504,417.16215 -83.303861,415.63777 -99.69875,415.63777"
       id="path371"
       style="fill:#fafafa;fill-opacity:1;fill-rule:nonzero;stroke:none" />
    <path
       d="M 32.20703,477.96118 C 27.177603,488.86 22.988143,505.9082 5.3799652,505.9082 C -12.228213,505.9082 -0.7694161,481.59066 1.7504822,473.49173 C 4.2600105,465.38243 14.038875,443.02481 29.687132,443.02481 C 45.895366,443.02481 37.236457,467.06236 32.20703,477.96118 z M 37.796434,411.44831 C 19.628279,411.44831 -45.204659,418.43766 -61.692882,474.3317 C -78.181105,530.21537 -37.105726,538.04468 -4.9692464,538.04468 C 27.177603,538.04468 68.812959,528.82579 92.29053,482.99061 C 115.7681,437.15542 90.330609,411.44831 37.796434,411.44831"
       id="path373"
       style="fill:#fafafa;fill-opacity:1;fill-rule:nonzero;stroke:none" />
    <g
       transform="matrix(10.369952,0,0,-10.369952,-5876.9542,1069.5669)"
       id="g375"
       style="fill:#fafafa">
      <g
         clip-path="url(#clipPath379)"
         id="g377"
         style="fill:#fafafa">
        <path
           d="M 517.542,56.494 C 518.102,60.979 518.921,65.334 519.482,69.948 L 516.377,66.93 L 513.273,69.948 L 515.084,56.494 L 517.542,56.494"
           id="path383"
           style="fill:#fafafa;fill-opacity:1;fill-rule:nonzero;stroke:none" />
        <path
           d="M 509.478,54.857 L 511.031,56.366 C 509.565,57.444 508.616,58.953 508.745,60.721 C 509.004,63.049 511.376,64.774 513.402,65.421 L 510.556,68.266 C 507.969,67.404 505.296,64.86 505.037,62.014 C 504.649,58.953 506.848,56.236 509.478,54.857"
           id="path385"
           style="fill:#fafafa;fill-opacity:1;fill-rule:nonzero;stroke:none" />
      </g>
    </g>
    <path
       d="M -462.22189,361.6518 L -492.18068,391.61059 C -472.95479,397.41777 -451.05345,412.62012 -445.68182,433.64001 C -440.32055,454.6599 -452.39118,472.99397 -468.03943,485.05423 L -459.54644,494.0035 C -456.41472,497.50854 -452.246,500.59878 -452.246,500.59878 C -452.246,500.59878 -442.72638,495.24789 -438.97246,492.66577 C -415.27712,476.11533 -402.76059,449.73417 -405.88194,423.35302 C -411.25358,395.63413 -435.84073,370.5907 -462.22189,361.6518"
       id="path387"
       style="fill:#fafafa;fill-opacity:1;fill-rule:nonzero;stroke:none" />
    <path
       d="M -596.36759,503.84458 L -625.43456,532.00937 L -624.98865,532.91155 L -421.54057,532.91155 L -449.70536,503.84458 L -596.36759,503.84458"
       id="path389"
       style="fill:#fafafa;fill-opacity:1;fill-rule:nonzero;stroke:none" />
  </g>
</svg>
